<?xml version="1.0" encoding="UTF-8"?>
<svg width="1920" height="320" viewBox="0 0 1920 320" xmlns="http://www.w3.org/2000/svg">
  <defs>
    <linearGradient id="stone" x1="0" y1="0" x2="0" y2="1">
      <stop offset="0%" stop-color="#162a40"/>
      <stop offset="100%" stop-color="#0b1a2a"/>
    </linearGradient>
    <linearGradient id="water" x1="0" y1="0" x2="0" y2="1">
      <stop offset="0%" stop-color="rgba(34,197,94,0.10)"/>
      <stop offset="100%" stop-color="rgba(230,208,156,0.05)"/>
    </linearGradient>
  </defs>

  <!-- Bridge deck -->
  <rect x="360" y="110" width="1200" height="36" rx="6" fill="url(#stone)" stroke="#081522" stroke-width="3"/>
  <!-- Arches -->
  <g fill="url(#stone)" stroke="#081522" stroke-width="3">
    <path d="M460 146 C500 146 520 182 520 210 L400 210 C400 182 420 146 460 146 Z"/>
    <path d="M680 146 C720 146 740 182 740 210 L620 210 C620 182 640 146 680 146 Z"/>
    <path d="M900 146 C940 146 960 182 960 210 L840 210 C840 182 860 146 900 146 Z"/>
    <path d="M1120 146 C1160 146 1180 182 1180 210 L1060 210 C1060 182 1080 146 1120 146 Z"/>
    <path d="M1340 146 C1380 146 1400 182 1400 210 L1280 210 C1280 182 1300 146 1340 146 Z"/>
  </g>

  <!-- Water reflection -->
  <rect x="360" y="210" width="1200" height="70" fill="url(#water)"/>
  <g stroke="rgba(230,208,156,0.12)" stroke-width="2" opacity="0.6">
    <path d="M400 248 C 460 230, 540 230, 600 248"/>
    <path d="M620 252 C 680 234, 760 234, 820 252"/>
    <path d="M840 246 C 900 228, 980 228, 1040 246"/>
    <path d="M1060 250 C 1120 232, 1200 232, 1260 250"/>
    <path d="M1280 248 C 1340 230, 1420 230, 1480 248"/>
  </g>
</svg>
