<?xml version="1.0" encoding="UTF-8"?>
<svg width="1920" height="900" viewBox="0 0 1920 900" xmlns="http://www.w3.org/2000/svg">
  <defs>
    <linearGradient id="stone" x1="0" y1="0" x2="0" y2="1">
      <stop offset="0%" stop-color="#1b3654"/>
      <stop offset="100%" stop-color="#102235"/>
    </linearGradient>
    <linearGradient id="stoneDark" x1="0" y1="0" x2="0" y2="1">
      <stop offset="0%" stop-color="#162b44"/>
      <stop offset="100%" stop-color="#0c1d2d"/>
    </linearGradient>
    <radialGradient id="warm" cx="50%" cy="50%" r="60%">
      <stop offset="0%" stop-color="#ffe7b0"/>
      <stop offset="100%" stop-color="#e6d09c"/>
    </radialGradient>
    <filter id="glow" x="-50%" y="-50%" width="200%" height="200%">
      <feGaussianBlur stdDeviation="3" result="b"/>
      <feMerge><feMergeNode in="b"/><feMergeNode in="SourceGraphic"/></feMerge>
    </filter>
  </defs>

  <!-- Ground baseline -->
  <rect x="0" y="720" width="1920" height="180" fill="#0b1624"/>

  <!-- Outer walls left -->
  <g fill="url(#stone)" stroke="#081522" stroke-width="3">
    <path d="M80 700 L80 460 L120 460 L120 440 L160 440 L160 460 L200 460 L200 440 L240 440 L240 460 L280 460 L280 440 L320 440 L320 460 L360 460 L360 440 L400 440 L400 460 L440 460 L440 700 Z"/>
    <path d="M1520 700 L1520 460 L1560 460 L1560 440 L1600 440 L1600 460 L1640 460 L1640 440 L1680 440 L1680 460 L1720 460 L1720 440 L1760 440 L1760 460 L1800 460 L1800 440 L1840 440 L1840 460 L1880 460 L1880 700 Z"/>
  </g>

  <!-- Central gatehouse complex -->
  <g fill="url(#stone)" stroke="#081522" stroke-width="3">
    <!-- Gatehouse main block -->
    <rect x="520" y="360" width="880" height="340" rx="10"/>
    <!-- Crenellations along top -->
    <path d="M520 360 L520 320 L560 320 L560 360 L600 360 L600 320 L640 320 L640 360 L680 360 L680 320 L720 320 L720 360 L760 360 L760 320 L800 320 L800 360 L840 360 L840 320 L880 320 L880 360 L920 360 L920 320 L960 320 L960 360 L1000 360 L1000 320 L1040 320 L1040 360 L1080 360 L1080 320 L1120 320 L1120 360 L1160 360 L1160 320 L1200 320 L1200 360 L1240 360 L1240 320 L1280 320 L1280 360 L1320 360 L1320 320 L1360 320 L1360 360 L1400 360 L1400 320 L1440 320 L1440 360"/>

    <!-- Gate arch -->
    <path d="M860 700 L860 520 C860 450 920 400 960 400 C1000 400 1060 450 1060 520 L1060 700 Z" fill="#0b1624"/>

    <!-- Portcullis -->
    <g stroke="#0c1a29" stroke-width="5">
      <path d="M880 700 L880 480"/>
      <path d="M900 700 L900 468"/>
      <path d="M920 700 L920 460"/>
      <path d="M940 700 L940 456"/>
      <path d="M960 700 L960 454"/>
      <path d="M980 700 L980 456"/>
      <path d="M1000 700 L1000 460"/>
      <path d="M1020 700 L1020 468"/>
      <path d="M880 520 L1020 520"/>
      <path d="M880 560 L1020 560"/>
      <path d="M880 600 L1020 600"/>
    </g>

    <!-- Side towers -->
    <g>
      <rect x="460" y="280" width="100" height="440" rx="8" fill="url(#stoneDark)"/>
      <path d="M460 280 L460 240 L480 240 L480 280 L500 280 L500 240 L520 240 L520 280 L540 280 L540 240 L560 240 L560 280" fill="url(#stone)"/>
      <rect x="1360" y="280" width="100" height="440" rx="8" fill="url(#stoneDark)"/>
      <path d="M1360 280 L1360 240 L1380 240 L1380 280 L1400 280 L1400 240 L1420 240 L1420 280 L1440 280 L1440 240 L1460 240 L1460 280" fill="url(#stone)"/>
    </g>

    <!-- Windows and arrow slits -->
    <g fill="#0a1422">
      <rect x="620" y="500" width="12" height="40" rx="3"/>
      <rect x="680" y="540" width="12" height="40" rx="3"/>
      <rect x="1240" y="500" width="12" height="40" rx="3"/>
      <rect x="1180" y="540" width="12" height="40" rx="3"/>
    </g>

    <!-- Lit windows (warm) -->
    <g filter="url(#glow)">
      <rect x="740" y="460" width="18" height="28" rx="4" fill="url(#warm)"/>
      <rect x="780" y="480" width="14" height="22" rx="4" fill="url(#warm)"/>
      <rect x="1120" y="460" width="18" height="28" rx="4" fill="url(#warm)"/>
      <rect x="1160" y="480" width="14" height="22" rx="4" fill="url(#warm)"/>
    </g>

    <!-- Torches by the gate -->
    <g filter="url(#glow)">
      <circle cx="848" cy="560" r="6" fill="url(#warm)"/>
      <circle cx="1072" cy="560" r="6" fill="url(#warm)"/>
    </g>
  </g>

  <!-- Subtle rim highlight -->
  <g stroke="rgba(230,208,156,0.35)" stroke-width="2" opacity="0.6">
    <path d="M520 360 L1400 360"/>
    <path d="M460 280 L560 280"/>
    <path d="M1360 280 L1460 280"/>
    <path d="M80 460 L440 460"/>
    <path d="M1520 460 L1880 460"/>
  </g>
</svg>
